<svg width="31" height="30" viewBox="0 0 31 30" fill="none" xmlns="http://www.w3.org/2000/svg">
<path fill-rule="evenodd" clip-rule="evenodd" d="M7.29046 0.778247C6.76923 1.30625 6.5143 2.48625 6.5143 4.37425C6.5143 6.84975 6.43525 7.07475 5.85029 6.26475C4.99507 5.08125 2.96944 5.53475 1.22492 7.30025C0.145901 8.39225 0.00410714 8.89775 0.199754 10.9557C0.562886 14.7832 2.36323 17.8657 6.97081 22.5517C11.277 26.9302 14.9281 29.3067 17.641 29.4962C21.1537 29.7412 21.7708 29.5277 23.0474 27.6267C23.7366 26.6002 24.3004 25.4837 24.3004 25.1452C24.3004 24.4172 18.7447 20.4927 17.7146 20.4927C17.3233 20.4927 16.639 21.0552 16.1939 21.7427C15.1099 23.4172 14.4879 23.3257 11.9371 21.1177L9.77162 19.2427L20.1236 18.9927L30.4761 18.7427L30.6115 9.77975C30.7147 2.94325 30.5971 0.720747 30.1174 0.412247C29.7711 0.189747 24.6684 0.00474744 18.7773 0.000247438C9.69257 -0.00625256 7.94904 0.111747 7.29046 0.778247ZM29.735 9.49275V17.9927H19.1054H8.4762L7.50686 16.3802L6.53802 14.7672L8.05527 13.3647C9.50977 12.0202 9.53991 11.9122 8.78449 10.7452C8.2188 9.87125 7.99647 8.32475 7.99647 5.26025V0.992747H18.8657H29.735V9.49275ZM8.98459 2.91025C8.98459 3.35725 17.344 9.81675 18.5075 10.2687C19.2615 10.5612 28.2528 3.80675 28.2528 2.94725C28.2528 2.30975 28.0646 2.42825 22.9412 6.29425L18.7719 9.44025L14.2053 5.96625C9.66194 2.51025 8.98459 2.11375 8.98459 2.91025ZM6.46292 8.91175C7.30627 10.2417 7.99647 11.5272 7.99647 11.7677C7.99647 12.0082 7.38483 12.7017 6.63781 13.3087L5.27916 14.4122L6.22034 16.2002C7.4866 18.6052 12.4761 23.3567 14.1944 23.7932C15.3372 24.0833 15.7675 23.9047 16.6617 22.7692L17.7457 21.3937L20.5322 23.2662L23.3187 25.1387L22.4338 26.6722C20.0791 30.7532 13.9444 28.5637 6.99798 21.1637C1.38006 15.1777 -0.310607 10.2487 2.38695 7.71875C3.1058 7.04475 3.97188 6.49275 4.31179 6.49275C4.65121 6.49275 5.61907 7.58125 6.46292 8.91175ZM11.7147 12.9797C10.1086 14.6222 8.95346 16.1277 9.14763 16.3247C9.52212 16.7037 14.1628 12.3522 14.9676 10.8677C15.8747 9.19475 14.6178 10.0107 11.7147 12.9797ZM22.4066 10.4467C22.7668 11.4407 27.8932 16.5307 28.3714 16.3692C28.9475 16.1752 23.4723 9.99275 22.7238 9.99275C22.4585 9.99275 22.3157 10.1972 22.4066 10.4467Z" fill="#EA526F"/>
</svg>
