<svg width="31" height="23" viewBox="0 0 31 23" fill="none" xmlns="http://www.w3.org/2000/svg">
<path d="M29.8929 9.11585H26.1562V5.13293C26.1562 4.51235 25.6615 4.01098 25.0491 4.01098H14.1507L10.0923 0.077134C10.0407 0.0281461 9.97274 0.000614607 9.90201 0H1.10714C0.494754 0 0 0.501372 0 1.12195V21.878C0 22.4986 0.494754 23 1.10714 23H25.2567C25.7065 23 26.1147 22.723 26.2843 22.2988L30.9204 10.6585C30.9723 10.5253 31 10.3816 31 10.2378C31 9.61723 30.5052 9.11585 29.8929 9.11585ZM23.6652 9.11585H6.02009C5.57031 9.11585 5.16205 9.39284 4.99252 9.81707L2.49107 16.1V2.52439H9.01283L13.1508 6.53537H23.6652V9.11585Z" fill="#EA526F"/>
</svg>
