<svg width="45" height="30" viewBox="0 0 45 30" fill="none" xmlns="http://www.w3.org/2000/svg">
<path fill-rule="evenodd" clip-rule="evenodd" d="M18.922 2.18482C16.4405 4.51843 15.8545 7.38371 17.247 10.3791C18.333 12.715 19.916 13.7222 22.5 13.7222C25.084 13.7222 26.667 12.715 27.753 10.3791C29.161 7.34979 28.3205 3.68921 25.793 1.84724C23.939 0.496346 20.5405 0.66319 18.922 2.18482ZM3.944 7.32643C-0.1375 9.79351 1.606 17.0591 6.279 17.0591C10.562 17.0591 12.5855 11.507 9.5385 8.11783C7.9115 6.30812 6.061 6.04673 3.944 7.32643ZM35.4615 8.11783C34.335 9.3714 34 10.2518 34 11.9614C34 17.8861 42.117 18.9038 43.2585 13.1226C44.28 7.94988 38.784 4.42221 35.4615 8.11783ZM15.2785 16.6269C14.691 17.5596 14.5 19.3315 14.5 23.8569V29.8505H22.5H30.5V23.8569C30.5 15.2599 30.6235 15.3906 22.5 15.3906C16.4085 15.3906 16.014 15.4579 15.2785 16.6269ZM0.8275 19.1886C0.1915 19.97 0 21.3208 0 25.0281V29.8505H6.25H12.5V24.6783C12.5 21.397 12.2805 19.262 11.9 18.8387C11.5165 18.4122 9.5615 18.1714 6.4775 18.1714C2.4405 18.1714 1.52 18.3371 0.8275 19.1886ZM33.1 18.8387C32.7195 19.262 32.5 21.397 32.5 24.6783V29.8505H38.75H45V24.9314C45 18.4105 44.7675 18.1714 38.4355 18.1714C35.419 18.1714 33.482 18.4138 33.1 18.8387Z" fill="#EA526F"/>
</svg>
