<svg width="31" height="28" viewBox="0 0 31 28" fill="none" xmlns="http://www.w3.org/2000/svg">
<path fill-rule="evenodd" clip-rule="evenodd" d="M4.94057 1.24012C4.94057 2.32412 4.72121 2.49012 3.28795 2.49012C0.131913 2.49012 0 3.00562 0 15.3271C0 25.3566 0.0805313 26.4086 0.903631 27.1626C1.69808 27.8906 3.44803 27.9901 15.4427 27.9901C27.1806 27.9901 29.1869 27.8806 29.8554 27.2046C30.5145 26.5371 30.6316 24.7411 30.6316 15.3001C30.6316 3.01562 30.5471 2.64812 27.6672 2.39312C26.3066 2.27262 25.9044 2.00012 25.7799 1.11512C25.5615 -0.444378 24.2088 -0.336378 24.2088 1.24012C24.2088 2.46862 24.1406 2.49012 20.2909 2.49012C16.6038 2.49012 16.3632 2.42362 16.215 1.36512C16.128 0.746122 15.7234 0.240122 15.3158 0.240122C14.9082 0.240122 14.5035 0.746122 14.4166 1.36512C14.2694 2.41462 14.0169 2.49012 10.6415 2.49012C7.19496 2.49012 7.00919 2.43112 6.71375 1.24012C6.30467 -0.410378 4.94057 -0.410378 4.94057 1.24012ZM4.94057 5.24012C4.94057 6.89062 6.30467 6.89062 6.71375 5.24012C7.00919 4.04912 7.19496 3.99012 10.6415 3.99012C14.0115 3.99012 14.2699 4.06662 14.4166 5.11012C14.6532 6.78712 16.3039 6.91462 16.3039 5.25562V3.94812L20.1328 4.09412C23.6762 4.22912 23.9736 4.32412 24.1199 5.36512C24.3239 6.82212 25.5749 6.82612 25.7799 5.37012C25.9612 4.08462 27.3782 3.62512 28.432 4.51012C28.8268 4.84162 29.1494 5.87262 29.1494 6.80112V8.49012H15.5628H1.97623V6.57362C1.97623 4.34212 2.22326 3.99012 3.78794 3.99012C4.68811 3.99012 4.94057 4.26412 4.94057 5.24012ZM29.0387 18.1151L28.9024 25.7401L15.4393 25.8731L1.97623 26.0061V18.2481V10.4901H15.5757H29.1751L29.0387 18.1151ZM6.14904 14.0336C5.96673 14.3326 6.03886 14.8016 6.3101 15.0761C7.06354 15.8386 9.10893 15.3511 9.2947 14.3651C9.42217 13.6886 9.12227 13.4901 7.97013 13.4901C7.15099 13.4901 6.33184 13.7346 6.14904 14.0336ZM13.5772 14.0056C13.0372 14.8901 14.0564 15.5856 15.626 15.4041C17.6122 15.1746 17.5049 13.7851 15.4857 13.5871C14.628 13.5026 13.7694 13.6911 13.5772 14.0056ZM21.4915 13.9901C20.9713 14.8421 21.7311 15.4901 23.2498 15.4901C24.3733 15.4901 24.7029 15.2636 24.7029 14.4901C24.7029 13.7166 24.3733 13.4901 23.2498 13.4901C22.4505 13.4901 21.6595 13.7151 21.4915 13.9901ZM6.02256 18.3651C6.13669 18.9646 6.65199 19.2401 7.65789 19.2401C8.66379 19.2401 9.17909 18.9646 9.29322 18.3651C9.42711 17.6611 9.10795 17.4901 7.65789 17.4901C6.20783 17.4901 5.88867 17.6611 6.02256 18.3651ZM13.6385 17.9051C13.1938 18.6336 14.635 19.5856 15.9062 19.4036C17.6467 19.1536 17.3261 17.7676 15.4857 17.5871C14.628 17.5026 13.7966 17.6461 13.6385 17.9051ZM21.3383 18.3651C21.4525 18.9646 21.9678 19.2401 22.9737 19.2401C23.9796 19.2401 24.4949 18.9646 24.609 18.3651C24.7429 17.6611 24.4237 17.4901 22.9737 17.4901C21.5236 17.4901 21.2044 17.6611 21.3383 18.3651ZM5.92869 22.2401C5.92869 22.7641 6.45041 22.9901 7.65789 22.9901C8.86537 22.9901 9.38709 22.7641 9.38709 22.2401C9.38709 21.7161 8.86537 21.4901 7.65789 21.4901C6.45041 21.4901 5.92869 21.7161 5.92869 22.2401ZM13.7056 21.7861C13.0485 22.4511 13.9112 22.9901 15.633 22.9901C16.8049 22.9901 17.3078 22.7856 17.1715 22.3651C16.9501 21.6826 14.2531 21.2321 13.7056 21.7861ZM21.2445 22.2401C21.2445 22.7641 21.7662 22.9901 22.9737 22.9901C24.1811 22.9901 24.7029 22.7641 24.7029 22.2401C24.7029 21.7161 24.1811 21.4901 22.9737 21.4901C21.7662 21.4901 21.2445 21.7161 21.2445 22.2401Z" fill="#EA526F"/>
</svg>
