<svg width="31" height="31" viewBox="0 0 31 31" fill="none" xmlns="http://www.w3.org/2000/svg">
<path fill-rule="evenodd" clip-rule="evenodd" d="M12.4449 2.11917C6.2621 7.88481 0.412997 13.8098 0.136289 14.5877C-0.323885 15.881 0.388513 16.5814 2.16347 16.5814H3.63187V23.5719C3.63187 29.6136 3.70398 30.592 4.16248 30.7812C4.45428 30.9016 6.41102 31 8.51099 31C11.9422 31 12.3638 30.9293 12.676 30.3029C12.8669 29.9193 13.0232 27.8917 13.0232 25.797V21.9884H15.0356H17.048V25.797C17.048 27.8917 17.2043 29.9193 17.3952 30.3029C17.7074 30.9293 18.129 31 21.5602 31C23.6602 31 25.6169 30.9016 25.9087 30.7812C26.3672 30.592 26.4393 29.6136 26.4393 23.5719V16.5814H27.8816C30.5638 16.5814 30.865 15.0718 28.6258 12.8477L27.1229 11.3547L27.0326 6.84884L26.9424 2.34302L23.1628 2.24101C20.0428 2.15702 19.3492 2.2338 19.1892 2.68294C19.038 3.10649 18.5882 2.87038 17.1523 1.61308C16.1387 0.725977 15.1761 0 15.0135 0C14.8508 0 13.6946 0.953791 12.4449 2.11917ZM17.3244 4.32558C20.1009 7.01862 21.0729 7.10441 21.0729 4.65649C21.0729 4.04586 21.3274 3.96512 23.253 3.96512H25.4331V8.03981V12.1145L26.6298 13.3567L27.8266 14.5988L26.3783 14.7791L24.93 14.9593L24.7623 21.9884L24.5946 29.0174L21.8275 29.122L19.0604 29.2269V24.9586C19.0604 22.1199 18.9256 20.5458 18.658 20.2581C18.1548 19.7174 12.5784 19.6702 11.6594 20.1987C11.0735 20.5357 11.0107 20.9899 11.0107 24.8995V29.2269L8.24367 29.122L5.47659 29.0174L5.30889 21.9884L5.14118 14.9593L3.67144 14.7791L2.2017 14.5988L6.6448 10.2733C9.08821 7.89419 11.9381 5.10347 12.9776 4.07181C14.0173 3.04016 14.9189 2.18838 14.9813 2.17937C15.0436 2.17036 16.0982 3.13605 17.3244 4.32558Z" fill="#EA526F"/>
</svg>
