<svg width="30" height="29" viewBox="0 0 20 19" fill="none" xmlns="http://www.w3.org/2000/svg">
<path d="M9.33599 0.253C9.51899 0.0904881 9.75524 0.000732422 9.99999 0.000732422C10.2447 0.000732422 10.481 0.0904881 10.664 0.253L19.664 8.253C19.8521 8.43172 19.9634 8.67656 19.9744 8.93582C19.9853 9.19508 19.8951 9.44844 19.7227 9.64238C19.5503 9.83632 19.3092 9.95566 19.0505 9.97518C18.7917 9.9947 18.5355 9.91288 18.336 9.747L18 9.45V17C18 17.5304 17.7893 18.0391 17.4142 18.4142C17.0391 18.7893 16.5304 19 16 19H3.99999C3.46955 19 2.96085 18.7893 2.58577 18.4142C2.2107 18.0391 1.99999 17.5304 1.99999 17V9.45L1.66399 9.747C1.46445 9.91288 1.20824 9.9947 0.949487 9.97518C0.690736 9.95566 0.449704 9.83632 0.277311 9.64238C0.104917 9.44844 0.0146617 9.19508 0.0256107 8.93582C0.0365597 8.67656 0.147856 8.43172 0.335988 8.253L9.33599 0.253ZM3.99999 7.67V17H6.99999V12C6.99999 11.7348 7.10534 11.4804 7.29288 11.2929C7.48042 11.1054 7.73477 11 7.99999 11H12C12.2652 11 12.5196 11.1054 12.7071 11.2929C12.8946 11.4804 13 11.7348 13 12V17H16V7.671L9.99999 2.338L3.99999 7.671V7.67ZM11 17V13H8.99999V17H11Z" fill="black"/>
</svg>
