<svg width="172" height="75" viewBox="0 0 172 75" fill="none" xmlns="http://www.w3.org/2000/svg">
<path d="M120.359 61.7084C120.359 67.9897 115.733 73.0602 110.153 73.0602H11.4984C5.85127 73.0602 1.29272 67.9141 1.29272 61.7084V13.7281C1.29272 7.44675 5.91931 2.37628 11.4984 2.37628H110.153C115.801 2.37628 120.359 7.52243 120.359 13.7281V61.7084Z" fill="white"/>
<path d="M120.359 61.7084C120.359 67.9897 115.733 73.0602 110.153 73.0602H11.4984C5.85127 73.0602 1.29272 67.9141 1.29272 61.7084V13.7281C1.29272 7.44675 5.91931 2.37628 11.4984 2.37628H110.153C115.801 2.37628 120.359 7.52243 120.359 13.7281V61.7084Z" fill="#070600"/>
<path d="M110.085 74.4981H11.4984C5.17088 74.4981 0 68.7466 0 61.7084V13.7281C0 6.68996 5.17088 0.938354 11.4984 0.938354H110.153C116.481 0.938354 121.652 6.68996 121.652 13.7281V61.7084C121.584 68.7466 116.481 74.4981 110.085 74.4981ZM11.4984 3.73848C6.53164 3.73848 2.51739 8.20353 2.51739 13.7281V61.7084C2.51739 67.233 6.53164 71.698 11.4984 71.698H110.153C115.12 71.698 119.134 67.233 119.134 61.7084V13.7281C119.134 8.20353 115.12 3.73848 110.153 3.73848H11.4984Z" fill="black"/>
<path d="M170.707 11.5334H120.359V63.8274H170.707V11.5334Z" fill="#FCFCFF"/>
<path d="M170.707 65.2653H120.359C119.679 65.2653 119.066 64.6599 119.066 63.8275V11.5334C119.066 10.7766 119.611 10.0956 120.359 10.0956H170.707C171.388 10.0956 172 10.701 172 11.5334V63.8275C171.932 64.6599 171.388 65.2653 170.707 65.2653ZM121.584 62.3895H169.346V12.9713H121.584V62.3895Z" fill="black"/>
<path d="M159.413 21.9771H129.816V31.2099H159.413V21.9771Z" fill="white"/>
<path d="M159.413 32.6478H129.816C129.136 32.6478 128.524 32.0423 128.524 31.2099V21.9771C128.524 21.2203 129.068 20.5392 129.816 20.5392H159.413C160.093 20.5392 160.706 21.1447 160.706 21.9771V31.2099C160.638 31.9667 160.093 32.6478 159.413 32.6478ZM131.109 29.772H158.12V23.3393H131.109V29.772Z" fill="black"/>
<path d="M159.413 44.2266H129.816V53.4594H159.413V44.2266Z" fill="white"/>
<path d="M159.413 54.8973H129.816C129.136 54.8973 128.524 54.2919 128.524 53.4594V44.2266C128.524 43.4698 129.068 42.7888 129.816 42.7888H159.413C160.093 42.7888 160.706 43.3942 160.706 44.2266V53.4594C160.638 54.2162 160.093 54.8973 159.413 54.8973ZM131.109 52.0215H158.12V45.5888H131.109V52.0215Z" fill="black"/>
<path d="M101.989 58.9083H18.9145C18.2341 58.9083 17.6218 58.3029 17.6218 57.4704C17.6218 56.638 18.1661 56.0326 18.9145 56.0326H101.989C102.669 56.0326 103.282 56.638 103.282 57.4704C103.282 58.3029 102.737 58.9083 101.989 58.9083Z" fill="black"/>
</svg>
