<svg width="72" height="74" viewBox="0 0 72 74" fill="none" xmlns="http://www.w3.org/2000/svg">
<line x1="24" y1="13.8923" x2="35.8923" y2="1.99999" stroke="black" stroke-width="3" stroke-linecap="round" stroke-linejoin="round"/>
<line x1="36.1213" y1="2" x2="48.0136" y2="13.8923" stroke="black" stroke-width="3" stroke-linecap="round" stroke-linejoin="round"/>
<circle cx="23.5" cy="14.5" r="2.5" fill="black"/>
<circle cx="48.5" cy="14.5" r="2.5" fill="black"/>
<line x1="1.5" y1="-1.5" x2="18.3182" y2="-1.5" transform="matrix(0.707107 0.707107 0.707107 -0.707107 24 57.9864)" stroke="black" stroke-width="3" stroke-linecap="round" stroke-linejoin="round"/>
<line x1="1.5" y1="-1.5" x2="18.3182" y2="-1.5" transform="matrix(0.707107 -0.707107 -0.707107 -0.707107 34 72)" stroke="black" stroke-width="3" stroke-linecap="round" stroke-linejoin="round"/>
<circle r="2.5" transform="matrix(1 0 0 -1 23.5 59.5)" fill="black"/>
<circle r="2.5" transform="matrix(1 0 0 -1 48.5 59.5)" fill="black"/>
<line x1="58.521" y1="25.0472" x2="70.2297" y2="37.1203" stroke="#0093D0" stroke-width="3" stroke-linecap="round" stroke-linejoin="round"/>
<line x1="70.2262" y1="37.3493" x2="58.1531" y2="49.058" stroke="#0093D0" stroke-width="3" stroke-linecap="round" stroke-linejoin="round"/>
<circle cx="57.921" cy="24.538" r="2.5" transform="rotate(90.8778 57.921 24.538)" fill="#0093D0"/>
<circle cx="57.538" cy="49.535" r="2.5" transform="rotate(90.8778 57.538 49.535)" fill="#0093D0"/>
<line x1="1.5" y1="-1.5" x2="18.3182" y2="-1.5" transform="matrix(-0.696191 0.717857 0.717857 0.696191 15.8587 25.0147)" stroke="black" stroke-width="3" stroke-linecap="round" stroke-linejoin="round"/>
<line x1="1.5" y1="-1.5" x2="18.3182" y2="-1.5" transform="matrix(0.717857 0.696191 0.696191 -0.717857 2 35.2283)" stroke="black" stroke-width="3" stroke-linecap="round" stroke-linejoin="round"/>
<circle r="2.5" transform="matrix(0.0153204 0.999883 0.999883 -0.0153204 14.3377 24.538)" fill="black"/>
<circle r="2.5" transform="matrix(0.0153204 0.999883 0.999883 -0.0153204 14.7207 49.535)" fill="black"/>
<path d="M20.6218 43.24C19.9818 43.24 19.4218 43.08 18.9418 42.76C18.4618 42.44 18.0938 42.024 17.8378 41.512C17.5978 40.984 17.4778 40.44 17.4778 39.88C17.4778 38.808 17.7418 37.928 18.2698 37.24C18.7978 36.552 19.4298 36.016 20.1658 35.632C20.9178 35.248 21.9098 34.832 23.1418 34.384V33.088C23.1418 32.592 23.0698 32.216 22.9258 31.96C22.7978 31.704 22.5578 31.576 22.2058 31.576C21.8538 31.576 21.6058 31.688 21.4618 31.912C21.3178 32.136 21.2298 32.456 21.1978 32.872L21.1258 33.832L17.7178 33.688C17.7818 32.04 18.2058 30.832 18.9898 30.064C19.7738 29.28 20.9498 28.888 22.5178 28.888C23.8778 28.888 24.9018 29.264 25.5898 30.016C26.2778 30.768 26.6218 31.8 26.6218 33.112V39.568C26.6218 40.656 26.7018 41.8 26.8618 43H23.6218C23.5578 42.536 23.4538 41.872 23.3098 41.008C23.1178 41.648 22.7898 42.184 22.3258 42.616C21.8778 43.032 21.3098 43.24 20.6218 43.24ZM21.9178 40.672C22.1578 40.672 22.3818 40.592 22.5898 40.432C22.8138 40.272 22.9978 40.088 23.1418 39.88V36.064C22.3898 36.496 21.8138 36.944 21.4138 37.408C21.0138 37.872 20.8138 38.44 20.8138 39.112C20.8138 39.608 20.9098 39.992 21.1018 40.264C21.2938 40.536 21.5658 40.672 21.9178 40.672ZM33.3615 43.24C31.8415 43.24 30.6895 42.816 29.9055 41.968C29.1215 41.12 28.7295 39.928 28.7295 38.392V33.712C28.7295 32.16 29.1215 30.968 29.9055 30.136C30.6895 29.304 31.8415 28.888 33.3615 28.888C34.8495 28.888 35.9695 29.24 36.7215 29.944C37.4895 30.648 37.8735 31.704 37.8735 33.112V34.432H34.3935V33.016C34.3935 32.408 34.3135 31.992 34.1535 31.768C33.9935 31.528 33.7375 31.408 33.3855 31.408C33.0015 31.408 32.7295 31.552 32.5695 31.84C32.4255 32.128 32.3535 32.632 32.3535 33.352V38.824C32.3535 39.544 32.4335 40.04 32.5935 40.312C32.7695 40.584 33.0335 40.72 33.3855 40.72C33.7535 40.72 34.0095 40.592 34.1535 40.336C34.3135 40.08 34.3935 39.672 34.3935 39.112V37.432H37.8735V38.968C37.8735 40.36 37.4895 41.424 36.7215 42.16C35.9535 42.88 34.8335 43.24 33.3615 43.24ZM39.9628 29.128H43.4908V30.28C44.4188 29.336 45.5068 28.864 46.7548 28.864C47.2988 28.864 47.7708 29.008 48.1708 29.296C48.5868 29.568 48.8988 29.984 49.1068 30.544C50.0988 29.424 51.2748 28.864 52.6348 28.864C53.4348 28.864 54.0668 29.16 54.5308 29.752C55.0108 30.328 55.2508 31.144 55.2508 32.2V43H51.7468V32.56C51.7468 32.112 51.6668 31.8 51.5068 31.624C51.3628 31.432 51.1388 31.336 50.8348 31.336C50.6268 31.336 50.3868 31.392 50.1148 31.504C49.8588 31.616 49.6108 31.776 49.3708 31.984V32.2V43H45.8668V32.56C45.8668 32.112 45.7868 31.8 45.6268 31.624C45.4828 31.432 45.2588 31.336 44.9548 31.336C44.7468 31.336 44.5068 31.392 44.2348 31.504C43.9788 31.616 43.7308 31.776 43.4908 31.984V43H39.9628V29.128Z" fill="black"/>
</svg>
