<svg width="83" height="85" viewBox="0 0 83 85" fill="none" xmlns="http://www.w3.org/2000/svg">
<line x1="27.8174" y1="16.6869" x2="41.5042" y2="2.99999" stroke="#F7F7FF" stroke-width="3" stroke-linecap="round" stroke-linejoin="round"/>
<line x1="41.2193" y1="3" x2="54.9061" y2="16.6869" stroke="#F7F7FF" stroke-width="3" stroke-linecap="round" stroke-linejoin="round"/>
<circle cx="27.2533" cy="17.1008" r="2.82015" fill="#F7F7FF"/>
<circle cx="55.4549" cy="17.1008" r="2.82015" fill="#F7F7FF"/>
<line x1="1.5" y1="-1.5" x2="20.8562" y2="-1.5" transform="matrix(0.707107 0.707107 0.707107 -0.707107 27.8174 66.1561)" stroke="#F7F7FF" stroke-width="3" stroke-linecap="round" stroke-linejoin="round"/>
<line x1="1.5" y1="-1.5" x2="20.8562" y2="-1.5" transform="matrix(0.707107 -0.707107 -0.707107 -0.707107 39.098 81.9643)" stroke="#F7F7FF" stroke-width="3" stroke-linecap="round" stroke-linejoin="round"/>
<circle r="2.82015" transform="matrix(1 0 0 -1 27.2533 67.8635)" fill="#F7F7FF"/>
<circle r="2.82015" transform="matrix(1 0 0 -1 55.4549 67.8635)" fill="#F7F7FF"/>
<line x1="66.4876" y1="28.9946" x2="79.9632" y2="42.8895" stroke="#0093D0" stroke-width="3" stroke-linecap="round" stroke-linejoin="round"/>
<line x1="79.9675" y1="42.6046" x2="66.0726" y2="56.0802" stroke="#0093D0" stroke-width="3" stroke-linecap="round" stroke-linejoin="round"/>
<circle cx="66.0824" cy="28.4243" r="2.82015" transform="rotate(90.8778 66.0824 28.4243)" fill="#0093D0"/>
<circle cx="65.6503" cy="56.6225" r="2.82015" transform="rotate(90.8778 65.6503 56.6225)" fill="#0093D0"/>
<line x1="1.5" y1="-1.5" x2="20.8562" y2="-1.5" transform="matrix(-0.696191 0.717857 0.717857 0.696191 18.6335 28.9621)" stroke="#F7F7FF" stroke-width="3" stroke-linecap="round" stroke-linejoin="round"/>
<line x1="1.5" y1="-1.5" x2="20.8562" y2="-1.5" transform="matrix(0.717857 0.696191 0.696191 -0.717857 3 40.4835)" stroke="#F7F7FF" stroke-width="3" stroke-linecap="round" stroke-linejoin="round"/>
<circle r="2.82015" transform="matrix(0.0153204 0.999883 0.999883 -0.0153204 16.9177 28.4243)" fill="#F7F7FF"/>
<circle r="2.82015" transform="matrix(0.0153204 0.999883 0.999883 -0.0153204 17.3497 56.6225)" fill="#F7F7FF"/>
<path d="M25.6218 48.24C24.9818 48.24 24.4218 48.08 23.9418 47.76C23.4618 47.44 23.0938 47.024 22.8378 46.512C22.5978 45.984 22.4778 45.44 22.4778 44.88C22.4778 43.808 22.7418 42.928 23.2698 42.24C23.7978 41.552 24.4298 41.016 25.1658 40.632C25.9178 40.248 26.9098 39.832 28.1418 39.384V38.088C28.1418 37.592 28.0698 37.216 27.9258 36.96C27.7978 36.704 27.5578 36.576 27.2058 36.576C26.8538 36.576 26.6058 36.688 26.4618 36.912C26.3178 37.136 26.2298 37.456 26.1978 37.872L26.1258 38.832L22.7178 38.688C22.7818 37.04 23.2058 35.832 23.9898 35.064C24.7738 34.28 25.9498 33.888 27.5178 33.888C28.8778 33.888 29.9018 34.264 30.5898 35.016C31.2778 35.768 31.6218 36.8 31.6218 38.112V44.568C31.6218 45.656 31.7018 46.8 31.8618 48H28.6218C28.5578 47.536 28.4538 46.872 28.3098 46.008C28.1178 46.648 27.7898 47.184 27.3258 47.616C26.8778 48.032 26.3098 48.24 25.6218 48.24ZM26.9178 45.672C27.1578 45.672 27.3818 45.592 27.5898 45.432C27.8138 45.272 27.9978 45.088 28.1418 44.88V41.064C27.3898 41.496 26.8138 41.944 26.4138 42.408C26.0138 42.872 25.8138 43.44 25.8138 44.112C25.8138 44.608 25.9098 44.992 26.1018 45.264C26.2938 45.536 26.5658 45.672 26.9178 45.672ZM38.3615 48.24C36.8415 48.24 35.6895 47.816 34.9055 46.968C34.1215 46.12 33.7295 44.928 33.7295 43.392V38.712C33.7295 37.16 34.1215 35.968 34.9055 35.136C35.6895 34.304 36.8415 33.888 38.3615 33.888C39.8495 33.888 40.9695 34.24 41.7215 34.944C42.4895 35.648 42.8735 36.704 42.8735 38.112V39.432H39.3935V38.016C39.3935 37.408 39.3135 36.992 39.1535 36.768C38.9935 36.528 38.7375 36.408 38.3855 36.408C38.0015 36.408 37.7295 36.552 37.5695 36.84C37.4255 37.128 37.3535 37.632 37.3535 38.352V43.824C37.3535 44.544 37.4335 45.04 37.5935 45.312C37.7695 45.584 38.0335 45.72 38.3855 45.72C38.7535 45.72 39.0095 45.592 39.1535 45.336C39.3135 45.08 39.3935 44.672 39.3935 44.112V42.432H42.8735V43.968C42.8735 45.36 42.4895 46.424 41.7215 47.16C40.9535 47.88 39.8335 48.24 38.3615 48.24ZM44.9628 34.128H48.4908V35.28C49.4188 34.336 50.5068 33.864 51.7548 33.864C52.2988 33.864 52.7708 34.008 53.1708 34.296C53.5868 34.568 53.8988 34.984 54.1068 35.544C55.0988 34.424 56.2748 33.864 57.6348 33.864C58.4348 33.864 59.0668 34.16 59.5308 34.752C60.0108 35.328 60.2508 36.144 60.2508 37.2V48H56.7468V37.56C56.7468 37.112 56.6668 36.8 56.5068 36.624C56.3628 36.432 56.1388 36.336 55.8348 36.336C55.6268 36.336 55.3868 36.392 55.1148 36.504C54.8588 36.616 54.6108 36.776 54.3708 36.984V37.2V48H50.8668V37.56C50.8668 37.112 50.7868 36.8 50.6268 36.624C50.4828 36.432 50.2588 36.336 49.9548 36.336C49.7468 36.336 49.5068 36.392 49.2348 36.504C48.9788 36.616 48.7308 36.776 48.4908 36.984V48H44.9628V34.128Z" fill="#F7F7FF"/>
</svg>
