<svg width="172" height="75" viewBox="0 0 172 75" fill="none" xmlns="http://www.w3.org/2000/svg">
<path d="M51.6408 61.4188C51.6408 67.7001 56.2674 72.7706 61.8465 72.7706H160.502C166.149 72.7706 170.707 67.6244 170.707 61.4188V13.4385C170.707 7.1572 166.081 2.08673 160.502 2.08673H61.8465C56.1994 2.08673 51.6408 7.23288 51.6408 13.4385V61.4188Z" fill="white"/>
<path d="M51.6408 61.4188C51.6408 67.7001 56.2674 72.7706 61.8465 72.7706H160.502C166.149 72.7706 170.707 67.6244 170.707 61.4188V13.4385C170.707 7.1572 166.081 2.08673 160.502 2.08673H61.8465C56.1994 2.08673 51.6408 7.23288 51.6408 13.4385V61.4188Z" fill="#EA526F"/>
<path d="M61.9146 74.2086H160.502C166.829 74.2086 172 68.457 172 61.4189V13.4385C172 6.40041 166.829 0.648804 160.502 0.648804H61.8466C55.519 0.648804 50.3481 6.40041 50.3481 13.4385V61.4189C50.4162 68.457 55.519 74.2086 61.9146 74.2086ZM160.502 3.44893C165.468 3.44893 169.483 7.91398 169.483 13.4385V61.4189C169.483 66.9434 165.468 71.4084 160.502 71.4084H61.8466C56.8798 71.4084 52.8656 66.9434 52.8656 61.4189V13.4385C52.8656 7.91398 56.8798 3.44893 61.8466 3.44893H160.502Z" fill="black"/>
<path d="M1.29279 11.2438H51.6409V63.5378H1.29279V11.2438Z" fill="#FCFCFF"/>
<path d="M1.29274 64.9756H51.6409C52.3212 64.9756 52.9336 64.3702 52.9336 63.5378V11.2438C52.9336 10.487 52.3893 9.80597 51.6409 9.80597H1.29274C0.612362 9.80597 3.8147e-06 10.4114 3.8147e-06 11.2438V63.5378C0.0680389 64.3702 0.612362 64.9756 1.29274 64.9756ZM50.4162 62.0999H2.6535V12.6817H50.4162V62.0999Z" fill="black"/>
<path d="M12.5871 21.6875H42.1836V30.9203H12.5871V21.6875Z" fill="white"/>
<path d="M12.5871 32.3582H42.1836C42.864 32.3582 43.4763 31.7528 43.4763 30.9203V21.6875C43.4763 20.9307 42.932 20.2496 42.1836 20.2496H12.5871C11.9067 20.2496 11.2944 20.855 11.2944 21.6875V30.9203C11.3624 31.6771 11.9067 32.3582 12.5871 32.3582ZM40.8909 29.4824H13.8798V23.0497H40.8909V29.4824Z" fill="black"/>
<path d="M12.5871 43.9371H42.1836V53.1698H12.5871V43.9371Z" fill="white"/>
<path d="M12.5871 54.6078H42.1836C42.864 54.6078 43.4763 54.0023 43.4763 53.1699V43.937C43.4763 43.1802 42.932 42.4991 42.1836 42.4991H12.5871C11.9067 42.4991 11.2944 43.1045 11.2944 43.937V53.1699C11.3624 53.9267 11.9067 54.6078 12.5871 54.6078ZM40.8909 51.7319H13.8798V45.2992H40.8909V51.7319Z" fill="black"/>
<path d="M70.0111 58.6188H153.085C153.766 58.6188 154.378 58.0133 154.378 57.1809C154.378 56.3484 153.834 55.743 153.085 55.743H70.0111C69.3307 55.743 68.7184 56.3484 68.7184 57.1809C68.7184 58.0133 69.2627 58.6188 70.0111 58.6188Z" fill="black"/>
</svg>
